<svg width="800" height="800" viewBox="0 0 800 800" xmlns="http://www.w3.org/2000/svg">
  <!-- Background -->
  <rect width="800" height="800" fill="#0d1117"/>
  
  <!-- Circular arrangement of technology logos -->
  <!-- Center of circle -->
  <g transform="translate(400, 400)">
    <!-- HTML5 -->
    <g transform="rotate(0) translate(0, -250)">
      <g transform="rotate(0)">
        <polygon points="0,-40 -35,10 35,10" fill="#e44d26">
          <animateTransform attributeName="transform" type="rotate" values="0;10;-10;0" dur="8s" repeatCount="indefinite"/>
        </polygon>
      </g>
    </g>
    
    <!-- CSS3 -->
    <g transform="rotate(24) translate(0, -250)">
      <g transform="rotate(-24)">
        <polygon points="0,-40 -35,10 35,10" fill="#264de4">
          <animateTransform attributeName="transform" type="rotate" values="0;10;-10;0" dur="8s" repeatCount="indefinite" begin="0.2s"/>
        </polygon>
      </g>
    </g>
    
    <!-- JavaScript -->
    <g transform="rotate(48) translate(0, -250)">
      <g transform="rotate(-48)">
        <ellipse cx="0" cy="0" rx="30" ry="40" fill="#f7df1e">
          <animateTransform attributeName="transform" type="rotate" values="0;10;-10;0" dur="8s" repeatCount="indefinite" begin="0.4s"/>
        </ellipse>
      </g>
    </g>
    
    <!-- Python -->
    <g transform="rotate(72) translate(0, -250)">
      <g transform="rotate(-72)">
        <polygon points="-20,-40 20,-40 30,-20 30,20 20,40 -20,40 -30,20 -30,-20" fill="#3776ab">
          <animateTransform attributeName="transform" type="rotate" values="0;10;-10;0" dur="8s" repeatCount="indefinite" begin="0.6s"/>
        </polygon>
      </g>
    </g>
    
    <!-- React -->
    <g transform="rotate(96) translate(0, -250)">
      <g transform="rotate(-96)">
        <ellipse cx="0" cy="0" rx="35" ry="25" fill="#61dafb">
          <animateTransform attributeName="transform" type="rotate" values="0;10;-10;0" dur="8s" repeatCount="indefinite" begin="0.8s"/>
        </ellipse>
      </g>
    </g>
    
    <!-- Node.js -->
    <g transform="rotate(120) translate(0, -250)">
      <g transform="rotate(-120)">
        <polygon points="0,-35 -30,-10 -30,10 0,35 30,10 30,-10" fill="#339933">
          <animateTransform attributeName="transform" type="rotate" values="0;10;-10;0" dur="8s" repeatCount="indefinite" begin="1s"/>
        </polygon>
      </g>
    </g>
    
    <!-- Docker -->
    <g transform="rotate(144) translate(0, -250)">
      <g transform="rotate(-144)">
        <rect x="-25" y="-25" width="50" height="50" fill="#2496ed" rx="10">
          <animateTransform attributeName="transform" type="rotate" values="0;10;-10;0" dur="8s" repeatCount="indefinite" begin="1.2s"/>
        </rect>
      </g>
    </g>
    
    <!-- Linux -->
    <g transform="rotate(168) translate(0, -250)">
      <g transform="rotate(-168)">
        <path d="M-30,-30 L30,-30 L30,30 L-30,30 Z M-20,-20 L-20,20 L20,20 L20,-20 Z" fill="#f5f5f5">
          <animateTransform attributeName="transform" type="rotate" values="0;10;-10;0" dur="8s" repeatCount="indefinite" begin="1.4s"/>
        </path>
      </g>
    </g>
    
    <!-- AWS -->
    <g transform="rotate(192) translate(0, -250)">
      <g transform="rotate(-192)">
        <polygon points="0,-40 -35,0 0,40 35,0" fill="#ff9900">
          <animateTransform attributeName="transform" type="rotate" values="0;10;-10;0" dur="8s" repeatCount="indefinite" begin="1.6s"/>
        </polygon>
      </g>
    </g>
    
    <!-- MySQL -->
    <g transform="rotate(216) translate(0, -250)">
      <g transform="rotate(-216)">
        <ellipse cx="0" cy="0" rx="35" ry="35" fill="#4479a1">
          <animateTransform attributeName="transform" type="rotate" values="0;10;-10;0" dur="8s" repeatCount="indefinite" begin="1.8s"/>
        </ellipse>
      </g>
    </g>
    
    <!-- MongoDB -->
    <g transform="rotate(240) translate(0, -250)">
      <g transform="rotate(-240)">
        <path d="M-30,-20 Q-40,-10 -30,0 Q-40,10 -30,20 L30,20 Q40,10 30,0 Q40,-10 30,-20 Z" fill="#47a248">
          <animateTransform attributeName="transform" type="rotate" values="0;10;-10;0" dur="8s" repeatCount="indefinite" begin="2s"/>
        </path>
      </g>
    </g>
    
    <!-- Git -->
    <g transform="rotate(264) translate(0, -250)">
      <g transform="rotate(-264)">
        <path d="M-25,-35 L0,-10 L25,-35 L25,-5 L-25,-5 Z" fill="#f05033">
          <animateTransform attributeName="transform" type="rotate" values="0;10;-10;0" dur="8s" repeatCount="indefinite" begin="2.2s"/>
        </path>
      </g>
    </g>
    
    <!-- Figma -->
    <g transform="rotate(288) translate(0, -250)">
      <g transform="rotate(-288)">
        <circle cx="0" cy="0" r="30" fill="#f24e1e">
          <animateTransform attributeName="transform" type="rotate" values="0;10;-10;0" dur="8s" repeatCount="indefinite" begin="2.4s"/>
        </circle>
      </g>
    </g>
    
    <!-- PostgreSQL -->
    <g transform="rotate(312) translate(0, -250)">
      <g transform="rotate(-312)">
        <ellipse cx="0" cy="0" rx="35" ry="25" fill="#336791">
          <animateTransform attributeName="transform" type="rotate" values="0;10;-10;0" dur="8s" repeatCount="indefinite" begin="2.6s"/>
        </ellipse>
      </g>
    </g>
    
    <!-- TypeScript -->
    <g transform="rotate(336) translate(0, -250)">
      <g transform="rotate(-336)">
        <polygon points="0,-40 -35,10 35,10" fill="#3178c6">
          <animateTransform attributeName="transform" type="rotate" values="0;10;-10;0" dur="8s" repeatCount="indefinite" begin="2.8s"/>
        </polygon>
      </g>
    </g>
  </g>
</svg>
